<svg xmlns="http://www.w3.org/2000/svg" viewBox="0 0 320 320" role="img" aria-labelledby="title desc">
  <title id="title">查理·芒格彩色编辑头像</title>
  <desc id="desc">珊瑚红背景中的查理·芒格彩色编辑插画</desc>
  <rect width="320" height="320" rx="24" fill="#ff785f"/>
  <circle cx="160" cy="125" r="67" fill="#f2c4a4"/>
  <path d="M96 116c4-54 32-76 67-76 41 0 66 29 65 79-16-11-28-30-32-50-25 27-60 42-100 47Z" fill="#e7e2dc"/>
  <path d="M55 320c7-83 46-123 105-123s100 40 106 123" fill="#252525"/>
  <path d="m126 206 34 58 35-58" fill="#fff"/>
  <g fill="none" stroke="#383838" stroke-width="6">
    <rect x="105" y="112" width="43" height="28" rx="9"/><rect x="173" y="112" width="43" height="28" rx="9"/><path d="M148 124h25"/>
  </g>
</svg>
